<?xml version="1.0" encoding="UTF-8"?>
<svg version="1.1" xmlns="http://www.w3.org/2000/svg" width="504" height="517">
<path d="M0 0 C1.36853876 -0.00150372 2.73707664 -0.00493692 4.10560608 -0.01020813 C6.96984843 -0.01453383 9.83296267 0.00224876 12.69702148 0.03442383 C16.35704516 0.07417023 20.01494987 0.06491711 23.67504025 0.04018879 C26.50030182 0.02596103 29.3250739 0.03612765 32.15030098 0.0537014 C34.15210171 0.06234712 36.15395553 0.05201226 38.15574646 0.04133606 C48.29492378 0.19854069 48.29492378 0.19854069 51.98583984 2.44042969 C55.52348377 7.84421454 54.9954914 13.28377179 54.921875 19.6015625 C54.92337872 20.97010126 54.92681192 22.33863914 54.93208313 23.70716858 C54.93640883 26.57141093 54.91962624 29.43452517 54.88745117 32.29858398 C54.84770477 35.95860766 54.85695789 39.61651237 54.88168621 43.27660275 C54.89591397 46.10186432 54.88574735 48.9266364 54.8681736 51.75186348 C54.85952788 53.75366421 54.86986274 55.75551803 54.88053894 57.75730896 C54.72333431 67.89648628 54.72333431 67.89648628 52.48144531 71.58740234 C47.07766046 75.12504627 41.63810321 74.5970539 35.3203125 74.5234375 C33.95177374 74.52494122 32.58323586 74.52837442 31.21470642 74.53364563 C28.35046407 74.53797133 25.48734983 74.52118874 22.62329102 74.48901367 C18.96326734 74.44926727 15.30536263 74.45852039 11.64527225 74.48324871 C8.82001068 74.49747647 5.9952386 74.48730985 3.17001152 74.4697361 C1.16821079 74.46109038 -0.83364303 74.47142524 -2.83543396 74.48210144 C-12.97461128 74.32489681 -12.97461128 74.32489681 -16.66552734 72.08300781 C-20.20317127 66.67922296 -19.6751789 61.23966571 -19.6015625 54.921875 C-19.60306622 53.55333624 -19.60649942 52.18479836 -19.61177063 50.81626892 C-19.61609633 47.95202657 -19.59931374 45.08891233 -19.56713867 42.22485352 C-19.52739227 38.56482984 -19.53664539 34.90692513 -19.56137371 31.24683475 C-19.57560147 28.42157318 -19.56543485 25.5968011 -19.5478611 22.77157402 C-19.53921538 20.76977329 -19.54955024 18.76791947 -19.56022644 16.76612854 C-19.40302181 6.62695122 -19.40302181 6.62695122 -17.16113281 2.93603516 C-11.75734796 -0.60160877 -6.31779071 -0.0736164 0 0 Z " fill="#047BE2" transform="translate(252.83984375,280.23828125)"/>
<path d="M0 0 C1.36853876 -0.00150372 2.73707664 -0.00493692 4.10560608 -0.01020813 C6.96984843 -0.01453383 9.83296267 0.00224876 12.69702148 0.03442383 C16.35704516 0.07417023 20.01494987 0.06491711 23.67504025 0.04018879 C26.50030182 0.02596103 29.3250739 0.03612765 32.15030098 0.0537014 C34.15210171 0.06234712 36.15395553 0.05201226 38.15574646 0.04133606 C48.29492378 0.19854069 48.29492378 0.19854069 51.98583984 2.44042969 C55.52348377 7.84421454 54.9954914 13.28377179 54.921875 19.6015625 C54.92337872 20.97010126 54.92681192 22.33863914 54.93208313 23.70716858 C54.93640883 26.57141093 54.91962624 29.43452517 54.88745117 32.29858398 C54.84770477 35.95860766 54.85695789 39.61651237 54.88168621 43.27660275 C54.89591397 46.10186432 54.88574735 48.9266364 54.8681736 51.75186348 C54.85952788 53.75366421 54.86986274 55.75551803 54.88053894 57.75730896 C54.72333431 67.89648628 54.72333431 67.89648628 52.48144531 71.58740234 C47.07766046 75.12504627 41.63810321 74.5970539 35.3203125 74.5234375 C33.95177374 74.52494122 32.58323586 74.52837442 31.21470642 74.53364563 C28.35046407 74.53797133 25.48734983 74.52118874 22.62329102 74.48901367 C18.96326734 74.44926727 15.30536263 74.45852039 11.64527225 74.48324871 C8.82001068 74.49747647 5.9952386 74.48730985 3.17001152 74.4697361 C1.16821079 74.46109038 -0.83364303 74.47142524 -2.83543396 74.48210144 C-12.97461128 74.32489681 -12.97461128 74.32489681 -16.66552734 72.08300781 C-20.20317127 66.67922296 -19.6751789 61.23966571 -19.6015625 54.921875 C-19.60306622 53.55333624 -19.60649942 52.18479836 -19.61177063 50.81626892 C-19.61609633 47.95202657 -19.59931374 45.08891233 -19.56713867 42.22485352 C-19.52739227 38.56482984 -19.53664539 34.90692513 -19.56137371 31.24683475 C-19.57560147 28.42157318 -19.56543485 25.5968011 -19.5478611 22.77157402 C-19.53921538 20.76977329 -19.54955024 18.76791947 -19.56022644 16.76612854 C-19.40302181 6.62695122 -19.40302181 6.62695122 -17.16113281 2.93603516 C-11.75734796 -0.60160877 -6.31779071 -0.0736164 0 0 Z " fill="#047BE2" transform="translate(142.83984375,235.23828125)"/>
<path d="M0 0 C1.36853876 -0.00150372 2.73707664 -0.00493692 4.10560608 -0.01020813 C6.96984843 -0.01453383 9.83296267 0.00224876 12.69702148 0.03442383 C16.35704516 0.07417023 20.01494987 0.06491711 23.67504025 0.04018879 C26.50030182 0.02596103 29.3250739 0.03612765 32.15030098 0.0537014 C34.15210171 0.06234712 36.15395553 0.05201226 38.15574646 0.04133606 C48.29492378 0.19854069 48.29492378 0.19854069 51.98583984 2.44042969 C55.52348377 7.84421454 54.9954914 13.28377179 54.921875 19.6015625 C54.92337872 20.97010126 54.92681192 22.33863914 54.93208313 23.70716858 C54.93640883 26.57141093 54.91962624 29.43452517 54.88745117 32.29858398 C54.84770477 35.95860766 54.85695789 39.61651237 54.88168621 43.27660275 C54.89591397 46.10186432 54.88574735 48.9266364 54.8681736 51.75186348 C54.85952788 53.75366421 54.86986274 55.75551803 54.88053894 57.75730896 C54.72333431 67.89648628 54.72333431 67.89648628 52.48144531 71.58740234 C47.07766046 75.12504627 41.63810321 74.5970539 35.3203125 74.5234375 C33.95177374 74.52494122 32.58323586 74.52837442 31.21470642 74.53364563 C28.35046407 74.53797133 25.48734983 74.52118874 22.62329102 74.48901367 C18.96326734 74.44926727 15.30536263 74.45852039 11.64527225 74.48324871 C8.82001068 74.49747647 5.9952386 74.48730985 3.17001152 74.4697361 C1.16821079 74.46109038 -0.83364303 74.47142524 -2.83543396 74.48210144 C-12.97461128 74.32489681 -12.97461128 74.32489681 -16.66552734 72.08300781 C-20.20317127 66.67922296 -19.6751789 61.23966571 -19.6015625 54.921875 C-19.60306622 53.55333624 -19.60649942 52.18479836 -19.61177063 50.81626892 C-19.61609633 47.95202657 -19.59931374 45.08891233 -19.56713867 42.22485352 C-19.52739227 38.56482984 -19.53664539 34.90692513 -19.56137371 31.24683475 C-19.57560147 28.42157318 -19.56543485 25.5968011 -19.5478611 22.77157402 C-19.53921538 20.76977329 -19.54955024 18.76791947 -19.56022644 16.76612854 C-19.40302181 6.62695122 -19.40302181 6.62695122 -17.16113281 2.93603516 C-11.75734796 -0.60160877 -6.31779071 -0.0736164 0 0 Z " fill="#047BE2" transform="translate(325.83984375,207.23828125)"/>
<path d="M0 0 C1.36853876 -0.00150372 2.73707664 -0.00493692 4.10560608 -0.01020813 C6.96984843 -0.01453383 9.83296267 0.00224876 12.69702148 0.03442383 C16.35704516 0.07417023 20.01494987 0.06491711 23.67504025 0.04018879 C26.50030182 0.02596103 29.3250739 0.03612765 32.15030098 0.0537014 C34.15210171 0.06234712 36.15395553 0.05201226 38.15574646 0.04133606 C48.29492378 0.19854069 48.29492378 0.19854069 51.98583984 2.44042969 C55.52348377 7.84421454 54.9954914 13.28377179 54.921875 19.6015625 C54.92337872 20.97010126 54.92681192 22.33863914 54.93208313 23.70716858 C54.93640883 26.57141093 54.91962624 29.43452517 54.88745117 32.29858398 C54.84770477 35.95860766 54.85695789 39.61651237 54.88168621 43.27660275 C54.89591397 46.10186432 54.88574735 48.9266364 54.8681736 51.75186348 C54.85952788 53.75366421 54.86986274 55.75551803 54.88053894 57.75730896 C54.72333431 67.89648628 54.72333431 67.89648628 52.48144531 71.58740234 C47.07766046 75.12504627 41.63810321 74.5970539 35.3203125 74.5234375 C33.95177374 74.52494122 32.58323586 74.52837442 31.21470642 74.53364563 C28.35046407 74.53797133 25.48734983 74.52118874 22.62329102 74.48901367 C18.96326734 74.44926727 15.30536263 74.45852039 11.64527225 74.48324871 C8.82001068 74.49747647 5.9952386 74.48730985 3.17001152 74.4697361 C1.16821079 74.46109038 -0.83364303 74.47142524 -2.83543396 74.48210144 C-12.97461128 74.32489681 -12.97461128 74.32489681 -16.66552734 72.08300781 C-20.20317127 66.67922296 -19.6751789 61.23966571 -19.6015625 54.921875 C-19.60306622 53.55333624 -19.60649942 52.18479836 -19.61177063 50.81626892 C-19.61609633 47.95202657 -19.59931374 45.08891233 -19.56713867 42.22485352 C-19.52739227 38.56482984 -19.53664539 34.90692513 -19.56137371 31.24683475 C-19.57560147 28.42157318 -19.56543485 25.5968011 -19.5478611 22.77157402 C-19.53921538 20.76977329 -19.54955024 18.76791947 -19.56022644 16.76612854 C-19.40302181 6.62695122 -19.40302181 6.62695122 -17.16113281 2.93603516 C-11.75734796 -0.60160877 -6.31779071 -0.0736164 0 0 Z " fill="#047BE2" transform="translate(215.83984375,162.23828125)"/>
</svg>
